# xmcd
#
# Track frame offsets:
#	150
#	18425
#	34925
#	48012
#	63137
#	79475
#	98775
#	114375
#	130125
#	146437
#	159012
#	175625
#	195175
#	210625
#	223000
#	237150
#	255875
#
# Disc length: 3565 seconds
#
# Revision: 0
# Processed by: cddbd v1.5.2PL0 Copyright (c) Steve Scherf et al.
# Submitted via: EasyCDDAExtractor 11.9.9.666
#
DISCID=d10deb11
DTITLE=邓丽君 - 邓丽君歌曲精选专辑5
DYEAR=1992
DGENRE=Pop
TTITLE0=多少黎明多少黄昏里
TTITLE1=情飘飘
TTITLE2=又见炊烟
TTITLE3=愿你来看我
TTITLE4=你装做不知道
TTITLE5=使爱情更美丽
TTITLE6=夜的投影
TTITLE7=月亮代表我的心
TTITLE8=小村之恋
TTITLE9=我怎能离开你
TTITLE10=再来一杯
TTITLE11=谁来爱我
TTITLE12=逃避行
TTITLE13=黄昏里
TTITLE14=旅愁
TTITLE15=永远爱我
TTITLE16=梅花
EXTD=
EXTT0=
EXTT1=
EXTT2=
EXTT3=
EXTT4=
EXTT5=
EXTT6=
EXTT7=
EXTT8=
EXTT9=
EXTT10=
EXTT11=
EXTT12=
EXTT13=
EXTT14=
EXTT15=
EXTT16=
PLAYORDER=
